<?xml version="1.0" encoding="UTF-8" standalone="no"?>
<!-- Generator: Adobe Illustrator 18.0.0, SVG Export Plug-In . SVG Version: 6.00 Build 0)  -->

<svg
   xmlns:dc="http://purl.org/dc/elements/1.1/"
   xmlns:cc="http://creativecommons.org/ns#"
   xmlns:rdf="http://www.w3.org/1999/02/22-rdf-syntax-ns#"
   xmlns:svg="http://www.w3.org/2000/svg"
   xmlns="http://www.w3.org/2000/svg"
   xmlns:sodipodi="http://sodipodi.sourceforge.net/DTD/sodipodi-0.dtd"
   xmlns:inkscape="http://www.inkscape.org/namespaces/inkscape"
   version="1.1"
   id="Capa_1"
   x="0px"
   y="0px"
   viewBox="0 0 47 47"
   enable-background="new 0 0 47 47"
   xml:space="preserve"
   sodipodi:docname="deputat_icon.svg"
   inkscape:version="0.92.2 (5c3e80d, 2017-08-06)"><metadata
     id="metadata45"><rdf:RDF><cc:Work
         rdf:about=""><dc:format>image/svg+xml</dc:format><dc:type
           rdf:resource="http://purl.org/dc/dcmitype/StillImage" /><dc:title></dc:title></cc:Work></rdf:RDF></metadata><defs
     id="defs43" /><sodipodi:namedview
     pagecolor="#ffffff"
     bordercolor="#666666"
     borderopacity="1"
     objecttolerance="10"
     gridtolerance="10"
     guidetolerance="10"
     inkscape:pageopacity="0"
     inkscape:pageshadow="2"
     inkscape:window-width="1920"
     inkscape:window-height="1018"
     id="namedview41"
     showgrid="false"
     inkscape:zoom="14.202315"
     inkscape:cx="15.793362"
     inkscape:cy="20.880663"
     inkscape:window-x="-8"
     inkscape:window-y="-8"
     inkscape:window-maximized="1"
     inkscape:current-layer="g35" /><g
     id="g35"
     style="fill:#0000ff"><path
       d="M 46.9,20.1 C 46.7,19.8 46.4,19.5 46,19.5 H 43.1 C 41.2,9.5 32.4,1.8 21.7,1.8 9.7,1.8 0,11.5 0,23.5 c 0,12 9.7,21.7 21.7,21.7 7.7,0 14.9,-4.2 18.8,-10.9 0.5,-0.9 0.2,-2.2 -0.7,-2.7 -0.9,-0.5 -2.2,-0.2 -2.7,0.7 -3.2,5.5 -9.1,8.9 -15.4,8.9 -9.8,0 -17.8,-8 -17.8,-17.8 0,-9.8 8,-17.8 17.8,-17.8 8.4,0 15.5,5.9 17.3,13.8 h -2.9 c -0.4,0 -0.7,0.2 -0.9,0.6 -0.2,0.3 -0.1,0.8 0.1,1.1 l 4.9,5.9 c 0.2,0.2 0.5,0.4 0.8,0.4 0.3,0 0.6,-0.1 0.8,-0.4 l 4.9,-5.9 c 0.3,-0.2 0.4,-0.6 0.2,-1 z"
       id="path31"
       style="fill:#e51a2a;fill-opacity:1"
       inkscape:connector-curvature="0" /><path
       d="m 21.7,6.7 c -1.1,0 -2,0.9 -2,2 v 12 c -0.9,0.6 -1.5,1.7 -1.5,2.8 0,1.9 1.6,3.5 3.5,3.5 0.5,0 1,-0.1 1.5,-0.3 l 6.9,4 c 0.3,0.2 0.6,0.3 1,0.3 0.7,0 1.3,-0.4 1.7,-1 0.5,-0.9 0.2,-2.2 -0.7,-2.7 l -6.9,-4 c -0.1,-1 -0.6,-2 -1.4,-2.5 V 8.8 C 23.7,7.6 22.8,6.7 21.7,6.7 Z m 0,18.3 c -0.8,0 -1.5,-0.7 -1.5,-1.5 0,-0.8 0.7,-1.5 1.5,-1.5 0.8,0 1.5,0.7 1.5,1.5 0,0.8 -0.7,1.5 -1.5,1.5 z"
       id="path33"
       style="fill:#1e3a8f;fill-opacity:1"
       inkscape:connector-curvature="0" /></g></svg>